<svg width="150" height="50" viewBox="0 0 240 79" fill="none" xmlns="http://www.w3.org/2000/svg">
<path d="M11.85 57.4C9.25 57.4 7.21667 57.15 5.75 56.65C4.31667 56.1167 3.3 55.3333 2.7 54.3C2.1 53.2667 1.8 52.0167 1.8 50.55C1.8 49.9167 1.88333 48.9833 2.05 47.75C2.21667 46.4833 2.46667 45.1 2.8 43.6C3.2 41.5667 3.66667 39.7667 4.2 38.2C4.73333 36.6333 5.43333 35.3333 6.3 34.3C7.2 33.2333 8.38333 32.4333 9.85 31.9C11.35 31.3667 13.2833 31.1 15.65 31.1C17.15 31.1 18.6333 31.1667 20.1 31.3C21.6 31.4333 22.9333 31.6167 24.1 31.85L23 36.7C22.3 36.5667 21.4 36.45 20.3 36.35C19.2333 36.25 18.2167 36.2 17.25 36.2C15.8833 36.2 14.7667 36.3167 13.9 36.55C13.0333 36.75 12.3333 37.15 11.8 37.75C11.2667 38.3167 10.8167 39.1333 10.45 40.2C10.1167 41.2333 9.78333 42.5833 9.45 44.25C9.21667 45.3167 9.01667 46.25 8.85 47.05C8.71667 47.8167 8.65 48.5 8.65 49.1C8.65 49.9667 8.81667 50.6333 9.15 51.1C9.51667 51.5333 10.0833 51.85 10.85 52.05C11.6167 52.2167 12.6333 52.3 13.9 52.3C14.7667 52.3 15.7667 52.25 16.9 52.15C18.0667 52.05 19.1 51.9333 20 51.8L19 56.6C17.9667 56.8333 16.8167 57.0167 15.55 57.15C14.2833 57.3167 13.05 57.4 11.85 57.4ZM36.2781 57.4C33.3781 57.4 31.1115 57.2167 29.4781 56.85C27.8781 56.4833 26.7448 55.85 26.0781 54.95C25.4115 54.0167 25.0781 52.7833 25.0781 51.25C25.0781 50.35 25.1781 49.3333 25.3781 48.2C25.5781 47.0667 25.8281 45.75 26.1281 44.25C26.5615 42.1167 26.9615 40.3 27.3281 38.8C27.7281 37.3 28.2115 36.05 28.7781 35.05C29.3781 34.05 30.1448 33.2667 31.0781 32.7C32.0115 32.1 33.1948 31.6833 34.6281 31.45C36.0948 31.2167 37.9115 31.1 40.0781 31.1C42.9781 31.1 45.2281 31.2833 46.8281 31.65C48.4615 32.0167 49.5948 32.6667 50.2281 33.6C50.8948 34.5 51.2281 35.7333 51.2281 37.3C51.2281 38.2 51.1448 39.2167 50.9781 40.35C50.8448 41.4833 50.6115 42.7833 50.2781 44.25C49.8115 46.3833 49.3615 48.2 48.9281 49.7C48.5281 51.2 48.0448 52.45 47.4781 53.45C46.9448 54.45 46.2115 55.25 45.2781 55.85C44.3781 56.4167 43.1948 56.8167 41.7281 57.05C40.2948 57.2833 38.4781 57.4 36.2781 57.4ZM36.5281 52.3C37.6281 52.3 38.5281 52.25 39.2281 52.15C39.9281 52.0167 40.4948 51.8 40.9281 51.5C41.3948 51.2 41.7781 50.7667 42.0781 50.2C42.3781 49.6 42.6448 48.8167 42.8781 47.85C43.1448 46.85 43.4281 45.65 43.7281 44.25C43.9948 42.9833 44.1948 41.9 44.3281 41C44.4615 40.1 44.5281 39.35 44.5281 38.75C44.5281 38.05 44.3781 37.5167 44.0781 37.15C43.8115 36.7833 43.3448 36.5333 42.6781 36.4C42.0115 36.2667 41.0781 36.2 39.8781 36.2C38.5115 36.2 37.4281 36.2833 36.6281 36.45C35.8281 36.6167 35.2115 36.9833 34.7781 37.55C34.3781 38.1167 34.0281 38.9333 33.7281 40C33.4615 41.0333 33.1281 42.45 32.7281 44.25C32.4615 45.55 32.2448 46.65 32.0781 47.55C31.9115 48.45 31.8281 49.2 31.8281 49.8C31.8281 50.5 31.9615 51.0333 32.2281 51.4C32.5281 51.7667 33.0115 52.0167 33.6781 52.15C34.3781 52.25 35.3281 52.3 36.5281 52.3ZM62.3391 57.4C60.4724 57.4 58.9391 57.2 57.7391 56.8C56.5724 56.4 55.7224 55.7 55.1891 54.7C54.6557 53.6667 54.3891 52.25 54.3891 50.45C54.3891 49.6167 54.4557 48.6667 54.5891 47.6C54.7224 46.5333 54.9224 45.3333 55.1891 44C55.7224 41.4667 56.3057 39.3667 56.9391 37.7C57.5724 36.0333 58.2891 34.7167 59.0891 33.75C59.9224 32.7833 60.9224 32.1 62.0891 31.7C63.2557 31.3 64.6224 31.1 66.1891 31.1C67.5224 31.1 68.7224 31.2 69.7891 31.4C70.8557 31.5667 71.7557 31.9 72.4891 32.4C73.2557 32.8667 73.8057 33.5667 74.1391 34.5H74.5391L77.5891 19.85H84.2391L76.3391 57H70.0891L70.6391 53.65H70.2891C69.6557 54.75 68.8891 55.5667 67.9891 56.1C67.1224 56.6333 66.2057 56.9833 65.2391 57.15C64.2724 57.3167 63.3057 57.4 62.3391 57.4ZM65.5391 52C66.4724 52 67.2724 51.9167 67.9391 51.75C68.6057 51.55 69.1557 51.2833 69.5891 50.95C70.0557 50.5833 70.4224 50.1167 70.6891 49.55C70.9224 49.1833 71.1391 48.6833 71.3391 48.05C71.5724 47.4167 71.7891 46.7333 71.9891 46C72.1891 45.2667 72.3724 44.5333 72.5391 43.8C72.7391 43.0333 72.8724 42.3167 72.9391 41.65C73.0391 40.95 73.0891 40.35 73.0891 39.85C73.0891 38.6167 72.7724 37.7667 72.1391 37.3C71.5057 36.8 70.3724 36.55 68.7391 36.55C67.5391 36.55 66.5724 36.6333 65.8391 36.8C65.1057 36.9333 64.5057 37.2667 64.0391 37.8C63.5724 38.3 63.1724 39.0667 62.8391 40.1C62.5391 41.1333 62.1891 42.5167 61.7891 44.25C61.5557 45.35 61.3724 46.3167 61.2391 47.15C61.1391 47.95 61.0891 48.6333 61.0891 49.2C61.0891 50 61.2224 50.6 61.4891 51C61.7891 51.4 62.2724 51.6667 62.9391 51.8C63.6057 51.9333 64.4724 52 65.5391 52ZM95.4125 57.4C92.7125 57.4 90.5792 57.2 89.0125 56.8C87.4792 56.3667 86.3958 55.6833 85.7625 54.75C85.1292 53.8167 84.8125 52.6167 84.8125 51.15C84.8125 50.25 84.8958 49.2333 85.0625 48.1C85.2292 46.9333 85.4625 45.6667 85.7625 44.3C86.2625 42.0333 86.7958 40.0667 87.3625 38.4C87.9625 36.7333 88.7458 35.3667 89.7125 34.3C90.6792 33.2 91.9958 32.4 93.6625 31.9C95.3292 31.3667 97.4792 31.1 100.113 31.1C102.546 31.1 104.429 31.3167 105.763 31.75C107.096 32.15 108.029 32.7833 108.563 33.65C109.129 34.5167 109.413 35.6167 109.413 36.95C109.413 37.5833 109.363 38.3 109.263 39.1C109.196 39.8667 109.063 40.6833 108.863 41.55C108.696 42.4167 108.513 43.3333 108.313 44.3L107.863 46.25H91.9625C91.8292 46.9167 91.7125 47.5333 91.6125 48.1C91.5125 48.6333 91.4625 49.1 91.4625 49.5C91.4625 50.2333 91.6458 50.8 92.0125 51.2C92.3792 51.5667 93.0292 51.8167 93.9625 51.95C94.8958 52.05 96.2125 52.1 97.9125 52.1C98.6458 52.1 99.4625 52.0833 100.363 52.05C101.263 52.0167 102.179 51.9667 103.113 51.9C104.079 51.8333 104.979 51.7667 105.813 51.7L104.763 56.6C103.996 56.7667 103.079 56.9 102.013 57C100.946 57.1333 99.8292 57.2333 98.6625 57.3C97.5292 57.3667 96.4458 57.4 95.4125 57.4ZM92.8625 42.15H102.463L102.563 41.65C102.696 41.0167 102.796 40.4667 102.863 40C102.929 39.5333 102.963 39.1167 102.963 38.75C102.963 38.05 102.829 37.5333 102.563 37.2C102.296 36.8333 101.879 36.6 101.313 36.5C100.746 36.3667 99.9958 36.3 99.0625 36.3C97.9625 36.3 97.0625 36.3833 96.3625 36.55C95.6625 36.6833 95.0958 36.9667 94.6625 37.4C94.2625 37.8 93.9125 38.4 93.6125 39.2C93.3458 39.9667 93.0958 40.95 92.8625 42.15ZM149.833 57L155.233 31.5H161.433L160.883 34.85H161.333C161.866 33.9833 162.516 33.2833 163.283 32.75C164.083 32.2167 164.999 31.8167 166.033 31.55C167.066 31.25 168.216 31.1 169.483 31.1C171.416 31.1 172.916 31.3167 173.983 31.75C175.083 32.1833 175.833 32.85 176.233 33.75C176.666 34.6167 176.883 35.7333 176.883 37.1C176.883 37.7 176.816 38.45 176.683 39.35C176.583 40.2167 176.433 41.1333 176.233 42.1L173.033 57H166.433L169.383 43.25C169.549 42.3833 169.699 41.5833 169.833 40.85C169.966 40.1167 170.033 39.5333 170.033 39.1C170.033 38.3667 169.883 37.8333 169.583 37.5C169.316 37.1333 168.899 36.9 168.333 36.8C167.766 36.6667 166.999 36.6 166.033 36.6C164.799 36.6 163.783 36.75 162.983 37.05C162.216 37.3167 161.599 37.75 161.133 38.35C160.699 38.95 160.333 39.7167 160.033 40.65C159.766 41.5833 159.499 42.6833 159.233 43.95L156.383 57H149.833ZM188.899 57.4C187.033 57.4 185.516 57.2 184.349 56.8C183.183 56.4 182.316 55.7 181.749 54.7C181.183 53.6667 180.899 52.25 180.899 50.45C180.899 49.6167 180.966 48.6667 181.099 47.6C181.266 46.5333 181.483 45.3333 181.749 44C182.283 41.4667 182.849 39.3667 183.449 37.7C184.083 36.0333 184.816 34.7167 185.649 33.75C186.516 32.7833 187.516 32.1 188.649 31.7C189.783 31.3 191.149 31.1 192.749 31.1C194.049 31.1 195.233 31.2 196.299 31.4C197.366 31.5667 198.266 31.9 198.999 32.4C199.766 32.8667 200.333 33.5667 200.699 34.5H201.049L202.049 31.5H208.299L202.899 57H196.699L197.199 53.65H196.849C196.183 54.75 195.416 55.5667 194.549 56.1C193.683 56.6333 192.766 56.9833 191.799 57.15C190.833 57.3167 189.866 57.4 188.899 57.4ZM192.099 52C193.033 52 193.833 51.9167 194.499 51.75C195.166 51.55 195.716 51.2833 196.149 50.95C196.616 50.5833 196.983 50.1167 197.249 49.55C197.483 49.1833 197.699 48.6833 197.899 48.05C198.133 47.4167 198.349 46.7333 198.549 46C198.749 45.2667 198.933 44.5333 199.099 43.8C199.299 43.0333 199.449 42.3167 199.549 41.65C199.649 40.95 199.699 40.35 199.699 39.85C199.699 38.6167 199.366 37.7667 198.699 37.3C198.066 36.8 196.916 36.55 195.249 36.55C194.083 36.55 193.133 36.6333 192.399 36.8C191.666 36.9333 191.066 37.2667 190.599 37.8C190.133 38.3 189.733 39.0667 189.399 40.1C189.066 41.1333 188.716 42.5167 188.349 44.25C188.116 45.35 187.933 46.3167 187.799 47.15C187.666 47.95 187.599 48.6333 187.599 49.2C187.599 50 187.733 50.6 187.999 51C188.299 51.4 188.783 51.6667 189.449 51.8C190.149 51.9333 191.033 52 192.099 52ZM207.94 67L215.44 31.5H221.64L221.09 34.85H221.49C222.157 33.7167 222.924 32.9 223.79 32.4C224.657 31.8667 225.574 31.5167 226.54 31.35C227.507 31.1833 228.474 31.1 229.44 31.1C231.34 31.1 232.857 31.3 233.99 31.7C235.157 32.1 236.024 32.8167 236.59 33.85C237.157 34.85 237.44 36.25 237.44 38.05C237.44 38.8833 237.374 39.8333 237.24 40.9C237.107 41.9667 236.907 43.1667 236.64 44.5C236.107 47.0333 235.524 49.1333 234.89 50.8C234.257 52.4667 233.524 53.7833 232.69 54.75C231.857 55.7167 230.857 56.4 229.69 56.8C228.557 57.2 227.19 57.4 225.59 57.4C224.29 57.4 223.107 57.3 222.04 57.1C220.974 56.9333 220.057 56.6167 219.29 56.15C218.524 55.65 217.974 54.9333 217.64 54H217.29L214.54 67H207.94ZM223.09 51.95C224.29 51.95 225.257 51.8833 225.99 51.75C226.724 51.5833 227.307 51.25 227.74 50.75C228.207 50.2167 228.607 49.4333 228.94 48.4C229.274 47.3667 229.624 45.9833 229.99 44.25C230.257 43.1167 230.44 42.15 230.54 41.35C230.674 40.55 230.74 39.8667 230.74 39.3C230.74 38.4667 230.59 37.85 230.29 37.45C230.024 37.05 229.557 36.8 228.89 36.7C228.224 36.5667 227.34 36.5 226.24 36.5C225.307 36.5 224.507 36.5833 223.84 36.75C223.207 36.9167 222.657 37.1833 222.19 37.55C221.757 37.9167 221.39 38.3833 221.09 38.95C220.857 39.3167 220.624 39.8167 220.39 40.45C220.19 41.0833 219.99 41.7667 219.79 42.5C219.59 43.2333 219.407 43.9833 219.24 44.75C219.074 45.5167 218.94 46.2333 218.84 46.9C218.74 47.5667 218.69 48.15 218.69 48.65C218.69 49.8833 219.007 50.75 219.64 51.25C220.274 51.7167 221.424 51.95 223.09 51.95Z" fill="white"/>
<path fill-rule="evenodd" clip-rule="evenodd" d="M143.155 9.06317C143.477 8.05647 142.221 7.3037 141.485 8.06246L117.978 32.304C117.363 32.9382 117.813 34.0001 118.696 34.0001H127.949C128.626 34.0001 129.107 34.6594 128.901 35.3047L121.345 58.9371C121.023 59.9438 122.279 60.6965 123.015 59.9378L146.522 35.6963C147.137 35.062 146.688 34.0001 145.804 34.0001H136.551C135.874 34.0001 135.393 33.3408 135.599 32.6956L143.155 9.06317Z" fill="url(#paint0_linear_101_102)"/>
<defs>
<linearGradient id="paint0_linear_101_102" x1="124.051" y1="60.4736" x2="130.657" y2="31.6186" gradientUnits="userSpaceOnUse">
<stop stop-color="#FF5858"/>
<stop offset="1" stop-color="#FF7C44"/>
</linearGradient>
</defs>
</svg>
