<svg width="15" height="15" viewBox="0 0 18 24" fill="none" xmlns="http://www.w3.org/2000/svg">
<path d="M16.527 4.79902C17.739 7.40702 17.464 10.477 16.122 12.972C15.021 15.019 13.378 16.712 12.024 18.586C11.405 19.444 10.7799 20.336 10.3549 21.313C10.2139 21.638 10.092 21.971 9.97195 22.305C9.85095 22.638 9.74795 22.978 9.63195 23.313C9.52295 23.627 9.39595 23.997 9.00495 24H8.99795C8.53195 23.999 8.41895 23.47 8.30295 23.113C8.01895 22.239 7.72195 21.4 7.28395 20.588C6.77395 19.644 6.13895 18.771 5.49395 17.917L16.527 4.79902ZM5.54495 7.70502L1.58595 12.412C2.30995 13.952 3.40695 15.275 4.45695 16.592C4.70395 16.902 4.95095 17.214 5.19395 17.528L10.178 11.603L10.149 11.613C8.40795 12.214 6.45795 11.322 5.75695 9.62602C5.66106 9.3958 5.59097 9.15567 5.54795 8.91002C5.48495 8.47302 5.47095 8.14902 5.54395 7.71202L5.54495 7.70502ZM2.49195 3.14902L2.48895 3.15302C0.54195 5.61902 0.20795 9.03302 1.37195 11.923L6.15695 6.23402L6.09895 6.18402L2.49195 3.14902ZM11.661 0.436016L7.82295 4.99902C7.83178 4.99525 7.84079 4.99191 7.84995 4.98902C9.44995 4.43802 11.253 5.13902 12.07 6.61502C12.246 6.93402 12.3929 7.29802 12.4469 7.66002C12.5149 8.10602 12.532 8.43302 12.459 8.88002L12.456 8.89602L16.292 4.33502C15.2895 2.50666 13.6416 1.11759 11.67 0.439016L11.661 0.436016ZM6.46595 5.86802L11.162 0.285016L11.115 0.273016C10.4201 0.0903618 9.70443 -0.00140351 8.98595 1.62239e-05C7.82255 0.010913 6.67398 0.262254 5.61236 0.738253C4.55074 1.21425 3.59901 1.90463 2.81695 2.76602L2.80095 2.78402L6.46595 5.86802Z" fill="#F55F4E"/>
</svg>
